<svg data-v-423bf9ae="" xmlns="http://www.w3.org/2000/svg" viewBox="0 0 110.98684901923693 60" class="font"><!----><!----><!----><g data-v-423bf9ae="" id="42063b0f-ea41-4f58-b7b5-ad0537addb08" fill="black" transform="matrix(6.578947450975964,0,0,6.578947450975964,-1.4473678399486687,-32.30263050358711)"><path d="M0.22 12.65L0.22 12.65L0.22 5.80Q0.22 5.44 0.79 5.21Q1.36 4.97 2.13 4.97L2.13 4.97Q2.57 4.97 2.96 5.08Q3.34 5.18 3.55 5.35L3.55 5.35Q3.83 5.70 4.06 6.07Q4.29 6.44 5.11 7.79L5.11 7.79Q5.18 7.79 5.24 7.75Q5.30 7.70 5.30 7.60Q5.30 7.50 5.13 7.21L5.13 7.21L4.40 5.94L4.40 5.56Q4.74 5.28 5.24 5.12Q5.74 4.96 6.28 4.96L6.28 4.96Q7.14 4.96 7.68 5.28L7.68 5.28Q8.30 5.65 8.30 6.45L8.30 6.45L8.30 12.93Q8.30 13.51 7.74 13.78L7.74 13.78Q7.26 14.02 6.46 14.02L6.46 14.02Q6.02 14.02 5.60 13.92Q5.17 13.83 4.94 13.68L4.94 13.68Q4.45 13.06 3.97 12.28L3.97 12.28L3.27 11.12Q3.08 11.15 3.08 11.33L3.08 11.33Q3.08 11.45 3.27 11.78L3.27 11.78L4.13 13.16L4.13 13.52Q3.34 14.03 2.34 14.03Q1.35 14.03 0.78 13.67Q0.22 13.31 0.22 12.65ZM12.52 10.40L12.52 11.24Q12.54 11.26 12.67 11.26Q12.80 11.26 12.87 11.17Q12.94 11.08 12.94 10.86L12.94 10.86L12.94 10.73Q12.94 10.47 12.88 10.36Q12.82 10.25 12.69 10.25Q12.56 10.25 12.51 10.28L12.51 10.28Q12.52 10.32 12.52 10.40L12.52 10.40ZM12.52 7.89L12.52 8.66Q12.54 8.68 12.67 8.68Q12.80 8.68 12.87 8.58Q12.94 8.48 12.94 8.24L12.94 8.24L12.94 8.20Q12.94 7.96 12.88 7.85Q12.82 7.75 12.69 7.75Q12.56 7.75 12.51 7.77L12.51 7.77Q12.52 7.81 12.52 7.89L12.52 7.89ZM8.80 12.30L8.80 6.03Q8.80 5.87 9.06 5.67L9.06 5.67Q9.61 5.26 10.99 5.02L10.99 5.02Q11.71 4.91 12.57 4.91L12.57 4.91Q14.62 4.91 15.67 5.70L15.67 5.70Q16.60 6.40 16.60 7.53L16.60 7.53Q16.60 7.94 16.45 8.34Q16.31 8.73 16.04 8.93L16.04 8.93Q15.68 8.74 15.35 8.74L15.35 8.74Q15.19 8.74 15.11 8.80Q15.03 8.87 15.03 9.03L15.03 9.03Q16.03 9.07 16.59 9.75L16.59 9.75Q17.09 10.38 17.09 11.30L17.09 11.30Q17.09 12.73 15.89 13.38L15.89 13.38Q14.77 13.99 12.52 13.99L12.52 13.99Q10.94 13.99 10.20 13.89Q9.46 13.79 9.13 13.42Q8.80 13.05 8.80 12.30L8.80 12.30Z"></path></g><!----><!----></svg>